<mxfile host="app.diagrams.net" modified="2023-11-12T01:07:49.983Z" agent="Mozilla/5.0 (Windows NT 10.0; Win64; x64) AppleWebKit/537.36 (KHTML, like Gecko) Chrome/119.0.0.0 Safari/537.36" etag="leP-XkDyPqsgh02H8iRf" version="21.5.0" type="device">
  <diagram name="Page-1" id="ZIzDp5pDLa5LlTU8ukvt">
    <mxGraphModel dx="1647" dy="897" grid="1" gridSize="10" guides="1" tooltips="1" connect="1" arrows="1" fold="1" page="1" pageScale="1" pageWidth="850" pageHeight="1100" math="0" shadow="0">
      <root>
        <mxCell id="0" />
        <mxCell id="1" parent="0" />
        <mxCell id="PkHDBH9p9kC9OBQaUekT-19" value="" style="shape=image;verticalLabelPosition=bottom;labelBackgroundColor=default;verticalAlign=top;aspect=fixed;imageAspect=0;image=data:image/png,iVBORw0KGgoAAAANSUhEUgAAA00AAAEeCAIAAADZ5GkLAAAK9klEQVR4nO3d23HcShIEUHFjHZAv8kku0AS6IJ/oi0zQfi9iYticArqrE+d89tVlEU9mDAI5P34AAAAAAAAAAAAAAAAAAAAAAAAAAAAAAADAed6+9a8//31e9HsAAPClX2+/xv/xaM6T8AAAmhhMe/8Z+UdCHgBAH4PZ7OucJ+QBAHQzktCGPs8DAGA7X+Q8H+YBAPT0ZU7zeR4AQCY5DwAgk5wHAJBJzgMAyCTnAQBkkvMAADLJeQAAmeQ8AIBMch4AQKb/nviz3n+/H1Y+/nz8/fv3sPjz58/xxYc/87BSHDG+aK655ppr7r5zr/gjNTK31X4u7oSX595tP587t8LneQAAmeQ8AIBMch4AQCY5DwAgk5wHAJDp7fl//vz3Oef3AADgu369/XryX/Wq7Pd+dau5Dw+Q9/bNNdfchnPv1qvi/hwzt8JzWwCATHIeAEAmOQ8AIJOcBwCQSc4DAMikVwUAYFeLe1WKr3C/3Ksy/suM/4aHleJPe3nuqu2923v7q47v3fqJiqfuhP3c6joy9/T7c8b9qng3CN7ejLkVntsCAGSS8wAAMsl5AACZ5DwAgExyHgBAJr0qAAC7WtyrUnyve1UfxMjcVdt7t96NVn0fju/C/Tzh+p3QA9Vqe4OP7xWVIp3vV3pVsudWeG4LAJBJzgMAyCTnAQBkkvMAADLJeQAAmfSqAADsqmOvyvjL3ue+P19cPKy06t2YsL3F/bzde+yteoJWHd9V+7m4uKrvY9X2rjqvMrY3o3dDr0r23ArPbQEAMsl5AACZ5DwAgExyHgBAJjkPACCTXhUAgF1t06tybs+IuXPeJ9ercvrxvWLTtutVMXeLPoiM+1XGdaRXJXtuhee2AACZ5DwAgExyHgBAJjkPACCTnAcAkEmvCgDArvJ7VYp9H+OLh5Wk7e38PnlS30fn43vFJdO5d6N/30f/49t5e4tXZav93Pm+cbe/C3pVAADoQs4DAMgk5wEAZJLzAAAyyXkAAJn0qgAA7Gper8rd3nM211xzzTXXXHPNvXpuhee2AACZ5DwAgExyHgBAJjkPACCTnAcAkEmvCgDArp73qvg8DwAgk5wHAJBJzgMAyCTnAQBk8r1n5pr7eO777/fDysefj4f/48N/Ob54WLnbfh7/H8ePSMb23m3uhONbvFRfvm9csXhYKR61l7e3/3mVMbfC53kAAJnkPACATHIeAEAmOQ8AIJOcBwCQyfeeAQDs6vn3nulVMdfcx3P1qphr7kVzi1Um516/xfKRw0r/fpNze2RanVfBcys8twUAyCTnAQBkkvMAADLJeQAAmeQ8AIBMelUAAHalV2Xq3OIr6yPv7bfqCyhWiqzqN5lwXr3cq7Lq+G56Xq26fs89nyfMbXWfLFaKrNrec3tVVp3Pq/pcgv/u61UBAGABOQ8AIJOcBwCQSc4DAMgk5wEAZNKrAgCwK70qV80tvhWvd6My94qdPzL3ijKOl+dmHN9VPRT2c7f7c6telVZ9TKv+HnX++3u3uRWe2wIAZJLzAAAyyXkAAJnkPACATHIeAEAmvSoAALvSqzJ1brFiY0Lfx4R+k/49I+f2FJy7vf3PK70qc3qCio1Ch5VW98lWvSqt+lxanVcZfT0Zcys8twUAyCTnAQBkkvMAADLJeQAAmeQ8AIBMelUAAHalV2Wnudv1qrTqN+nfq5JxXhV3wmFFr8qc87n/fXJCv8kVO/+w0r+fqLhnzp0bfD7rVQEA4FpyHgBAJjkPACCTnAcAkEnOAwDIpFcFAGBXelV2mvvy+/NXlK28PPfcnpFWvSpXlI8cVlbt5ysqY4K3d7vzudV9ctV+vmLxsNLqfNarEjO3wnNbAIBMch4AQCY5DwAgk5wHAJBJzgMAyKRXBQBgV3pVzDX3lbmtehmC97O55pprrrnP51Z4bgsAkEnOAwDIJOcBAGSS8wAAMsl5AACZ9KoAAOzqea+Kz/MAADLJeQAAmeQ8AIBMch4AQCbfe2buyrnnfg/Y+FeNdd7P479wq+P78n5utb3FU6jzedXqfG71/YHn3jdabW9xROfz6m5zK3yeBwCQSc4DAMgk5wEAZJLzAAAyyXkAAJl87xkAwK6ef++ZXhVzt+xVKVZdrOopGJnbqmdEj0z9ZHt5ruM7pzen/35edd84t7+m/37uPLfCc1sAgExyHgBAJjkPACCTnAcAkEnOAwDIpFcFAGBXelWmzi1WbATPbdWrsqoP4tx+hAnHd8LcKypy9Kr0mXtFFdF2fS4Tzme9KtlzKzy3BQDIJOcBAGSS8wAAMsl5AACZ5DwAgEx6VQAAdqVXZae55/ZutOoZGS9NGJlbrGDo3FNwxaZN6EeY0Aexqt9Er0q3uRPuGxl9Pa22t/951Xluhee2AACZ5DwAgExyHgBAJjkPACCTnAcAkEmvCgDArvSqTJ17xcv8E+Z27hm5opKg8/FttZ9X9aqsOr56VbaYu911NOF8brW9m55XnedWeG4LAJBJzgMAyCTnAQBkkvMAADLJeQAAmfSqAADsSq/KVXOT3mPXU6APojh3Ql/Pqn4TvSo73ifvdr9qtb3B57NeFQAAupDzAAAyyXkAAJnkPACATHIeAEAmvSoAALvSqzJ17sMX0YuLh5UrRnTe3la9KhP2c6t+hOKmTdjeVufzy9u76jra9D6ZMTd4P9/t775eFQAAFpDzAAAyyXkAAJnkPACATHIeAEAmvSoAALvSq2Kuueaaa6655pq769wKz20BADLJeQAAmeQ8AIBMch4AQCY5DwAgk14VAIBdPe9V8XkeAEAmOQ8AIJOcBwCQSc4DAMjke8/MNbfX3Pff74eVjz8fwdtr7rd+2vjpce7cu+3nc+c+PGrji9vNvdvx9b1nAAAsIOcBAGSS8wAAMsl5AACZ5DwAgEy+9wwAYFfPv/dMr4q55vaaq1fF3B/frFDJ2N6MuVdcvw9/ZpO5/Y9vxnVU4bktAEAmOQ8AIJOcBwCQSc4DAMgk5wEAZNKrAgCwK70qaXMfviV+xeLI3FXv7Rc3LaMfYdX2Tphb/GU6X79XVD9st73Bc/vfN4oX9WGl/34u/svDil4VAAC6kPMAADLJeQAAmeQ8AIBMch4AQCa9KgAAu9KrYu7/LZ7bQzGh/+KKnoLt+hGuKE3oPDe4H2HV+bzp/Spjbqveq4zraFXfll4VAAC6kPMAADLJeQAAmeQ8AIBMch4AQCa9KgAAu9Krct+5xQaHJnP1qpj75KcF90Hc7X5l7o69SP37iTLuGxWe2wIAZJLzAAAyyXkAAJnkPACATHIeAEAmvSoAALvSq3KLuat6Ga54uf2wsqrv427be7e5ra7fVr1IwffJ/nO3u2/0388Z11GF57YAAJnkPACATHIeAEAmOQ8AIJOcBwCQSa8KAMCu9KqkzX34lvgViyNzW/WbjC92fm//ikPZuZeh1XnV/74x4Xxutb0Zc4uX6oS5zqvmcys8twUAyCTnAQBkkvMAADLJeQAAmeQ8AIBMelUAAHalV8Vcc80111xzzTV317kVntsCAGSS8wAAMsl5AACZ5DwAgExyHgBAJr0qAAC7et6r4vM8AIBMch4AQCY5DwAgk5wHAJBJzgMAyCTnAQBkkvMAADLJeQAAmeQ8AIBMch4AQKYvct7zL9MAAGCVL3Oaz/MAADJ9nfN8pAcA0M1IQhv6PE/UAwDoYzCbvX3rh37++3zplwEA4AQ+fQMAAAAAAAAAAAAAAAAAAAAAAAAAAAAAAGCZ/wE2Wf9djj1yXgAAAABJRU5ErkJgggo=;" vertex="1" parent="1">
          <mxGeometry x="460" y="190" width="845" height="286" as="geometry" />
        </mxCell>
        <mxCell id="PkHDBH9p9kC9OBQaUekT-4" value="" style="endArrow=classic;html=1;rounded=0;strokeWidth=6;strokeColor=#CCCCCC;" edge="1" parent="1">
          <mxGeometry width="50" height="50" relative="1" as="geometry">
            <mxPoint x="941" y="158" as="sourcePoint" />
            <mxPoint x="941" y="228" as="targetPoint" />
          </mxGeometry>
        </mxCell>
        <mxCell id="PkHDBH9p9kC9OBQaUekT-5" value="&lt;font style=&quot;font-size: 35px;&quot;&gt;Name being entered&lt;/font&gt;" style="edgeLabel;html=1;align=center;verticalAlign=middle;resizable=0;points=[];" vertex="1" connectable="0" parent="PkHDBH9p9kC9OBQaUekT-4">
          <mxGeometry x="-0.7807" y="-1" relative="1" as="geometry">
            <mxPoint y="-31" as="offset" />
          </mxGeometry>
        </mxCell>
        <mxCell id="PkHDBH9p9kC9OBQaUekT-20" value="" style="endArrow=classic;html=1;rounded=0;strokeWidth=6;strokeColor=#CCCCCC;" edge="1" parent="1">
          <mxGeometry width="50" height="50" relative="1" as="geometry">
            <mxPoint x="1220" y="517.92" as="sourcePoint" />
            <mxPoint x="1220" y="440" as="targetPoint" />
          </mxGeometry>
        </mxCell>
        <mxCell id="PkHDBH9p9kC9OBQaUekT-21" value="&lt;font style=&quot;font-size: 35px;&quot;&gt;Select asterisk to save/finish&lt;/font&gt;" style="edgeLabel;html=1;align=center;verticalAlign=middle;resizable=0;points=[];" vertex="1" connectable="0" parent="PkHDBH9p9kC9OBQaUekT-20">
          <mxGeometry x="-0.7807" y="-1" relative="1" as="geometry">
            <mxPoint x="-171" y="21" as="offset" />
          </mxGeometry>
        </mxCell>
      </root>
    </mxGraphModel>
  </diagram>
</mxfile>
